#N canvas 838 235 450 424 10;
#X floatatom 148 146 8 0 0 0 - - -;
#X obj 148 53 inlet;
#X obj 148 94 *;
#X obj 148 117 int;
#X obj 80 325 tabwrite vol;
#X obj 195 78 r array_size;
#X floatatom 216 205 8 0 0 0 - - -;
#X obj 216 175 inlet;
#X obj 133 222 /;
#X floatatom 133 257 10 0 0 0 - - -;
#X obj 80 274 *;
#X obj 133 196 bng 15 250 50 0 empty empty empty 17 7 0 10 -262144
-1 -1;
#X obj 80 163 boucle;
#X text 80 55 attack;
#X obj 162 173 s xA;
#X obj 80 129 r writeV;
#X obj 216 233 s yA;
#X connect 0 0 8 1;
#X connect 0 0 11 0;
#X connect 0 0 12 2;
#X connect 0 0 14 0;
#X connect 1 0 2 0;
#X connect 2 0 3 0;
#X connect 3 0 0 0;
#X connect 5 0 2 1;
#X connect 6 0 8 0;
#X connect 6 0 16 0;
#X connect 7 0 6 0;
#X connect 8 0 9 0;
#X connect 9 0 10 1;
#X connect 10 0 4 0;
#X connect 11 0 8 0;
#X connect 12 0 10 0;
#X connect 12 0 4 1;
#X connect 15 0 12 0;
