#N canvas 483 277 450 300 10;
#X obj 125 119 until;
#X obj 125 189 + 1;
#X obj 208 207 sel 0;
#X obj 301 189 inlet;
#X obj 125 73 bng 15 250 50 0 empty empty empty 17 7 0 10 -262144 -1
-1;
#X obj 125 36 inlet;
#X obj 221 94 bng 15 250 50 0 empty empty empty 17 7 0 10 -262144 -1
-1;
#X obj 125 145 f;
#X floatatom 221 128 5 0 0 0 - - -, f 5;
#X obj 161 76 delay 1;
#X obj 125 239 outlet;
#X text 166 36 bang;
#X text 341 189 max;
#X text 171 239 index out;
#X obj 260 110 inlet;
#X text 301 110 min;
#X obj 284 38 loadbang;
#X connect 0 0 7 0;
#X connect 1 0 2 0;
#X connect 1 0 7 1;
#X connect 1 0 10 0;
#X connect 2 0 0 1;
#X connect 2 0 9 0;
#X connect 3 0 2 1;
#X connect 4 0 0 0;
#X connect 5 0 4 0;
#X connect 6 0 8 0;
#X connect 7 0 1 0;
#X connect 8 0 7 1;
#X connect 9 0 6 0;
#X connect 14 0 8 0;
#X connect 16 0 8 0;
