#N canvas 737 192 861 587 10;
#X floatatom 285 173 8 0 0 0 - - -;
#X obj 285 67 inlet;
#X obj 285 108 *;
#X obj 207 433 tabwrite vol;
#X obj 335 92 r array_size;
#X floatatom 498 183 8 0 0 0 - - -;
#X obj 498 159 inlet;
#X obj 358 282 /;
#X floatatom 358 312 10 0 0 0 - - -;
#X obj 207 362 *;
#X obj 207 223 boucle;
#X obj 207 189 r writeV;
#X text 207 115 decay;
#X obj 126 207 r xA;
#X obj 285 206 s xD;
#X obj 567 188 r yA;
#X obj 548 230 -;
#X obj 498 217 bng 15 250 50 0 empty empty empty 17 7 0 10 -262144
-1 -1;
#X floatatom 548 267 5 0 0 0 - - -;
#X obj 207 292 -;
#X obj 285 131 int;
#X obj 358 147 -;
#X obj 402 131 r xA;
#X obj 402 151 bng 15 250 50 0 empty empty empty 17 7 0 10 -262144
-1 -1;
#X text 589 267 difference en y;
#X floatatom 358 180 0 0 0 0 - - -;
#X text 365 205 difference en x;
#X obj 207 402 +;
#X obj 232 380 r yA;
#X obj 354 257 bng 15 250 50 0 empty empty empty 17 7 0 10 -262144
-1 -1;
#X obj 358 346 * -1;
#X obj 602 223 s yD;
#X connect 0 0 10 2;
#X connect 0 0 14 0;
#X connect 1 0 2 0;
#X connect 2 0 20 0;
#X connect 4 0 2 1;
#X connect 5 0 16 1;
#X connect 5 0 17 0;
#X connect 5 0 31 0;
#X connect 6 0 5 0;
#X connect 7 0 8 0;
#X connect 8 0 30 0;
#X connect 9 0 27 0;
#X connect 10 0 3 1;
#X connect 10 0 19 0;
#X connect 11 0 10 0;
#X connect 13 0 10 1;
#X connect 13 0 19 1;
#X connect 15 0 16 0;
#X connect 16 0 18 0;
#X connect 17 0 16 0;
#X connect 18 0 7 0;
#X connect 19 0 9 0;
#X connect 20 0 21 0;
#X connect 20 0 0 0;
#X connect 21 0 25 0;
#X connect 22 0 21 1;
#X connect 22 0 23 0;
#X connect 23 0 21 0;
#X connect 25 0 7 1;
#X connect 25 0 29 0;
#X connect 27 0 3 0;
#X connect 28 0 27 1;
#X connect 29 0 7 0;
#X connect 30 0 9 1;
