#N canvas 662 300 278 536 10;
#X obj 67 345 line~;
#X obj 67 483 dac~;
#X obj 67 376 tabread4~ array1;
#X obj 67 60 inlet;
#X msg 67 196 0;
#X obj 133 154 r array_size;
#X obj 105 240 pack b f f;
#X msg 105 298 44100 1000;
#X msg 105 266 set \$2 \$3;
#X obj 162 184 / 44100;
#X obj 162 207 * 1000;
#X obj 105 131 delay 1;
#X obj 67 400 *~ 0.8;
#X obj 190 284 bng 15 250 50 0 empty empty empty 17 7 0 10 -262144
-1 -1;
#X connect 0 0 2 0;
#X connect 2 0 12 0;
#X connect 3 0 11 0;
#X connect 3 0 4 0;
#X connect 4 0 0 0;
#X connect 5 0 6 1;
#X connect 5 0 9 0;
#X connect 6 0 8 0;
#X connect 7 0 0 0;
#X connect 8 0 7 0;
#X connect 8 0 13 0;
#X connect 9 0 10 0;
#X connect 10 0 6 2;
#X connect 11 0 6 0;
#X connect 12 0 1 1;
#X connect 12 0 1 0;
#X connect 13 0 7 0;
