#N canvas 662 223 278 536 10;
#X obj 67 345 line~;
#X obj 67 483 dac~;
#X obj 67 60 inlet;
#X msg 67 196 0;
#X obj 133 154 r array_size;
#X msg 105 298 88200 2000;
#X msg 105 266 set \$2 \$3;
#X obj 162 184 / 44100;
#X obj 162 207 * 1000;
#X obj 105 131 delay 1;
#X obj 67 400 *~ 0.8;
#X obj 190 284 bng 15 250 50 0 empty empty empty 17 7 0 10 -262144
-1 -1;
#X obj 105 240 pack f f f;
#X obj 206 382 inlet;
#X obj 67 376 tabread4~ freq;
#X connect 0 0 14 0;
#X connect 2 0 9 0;
#X connect 2 0 3 0;
#X connect 3 0 0 0;
#X connect 4 0 7 0;
#X connect 4 0 12 1;
#X connect 5 0 0 0;
#X connect 6 0 5 0;
#X connect 6 0 11 0;
#X connect 7 0 8 0;
#X connect 8 0 12 2;
#X connect 9 0 12 0;
#X connect 10 0 1 1;
#X connect 10 0 1 0;
#X connect 11 0 5 0;
#X connect 12 0 6 0;
#X connect 13 0 10 1;
#X connect 14 0 10 0;
