#N canvas 1 55 330 277 10;
#X obj 44 67 line~;
#X obj 44 205 dac~;
#X obj 152 160 line~, f 7;
#X obj 44 178 *~;
#X obj 214 75 delay 30;
#X obj 152 60 bng 15 250 50 0 empty empty empty 17 7 0 10 -262144 -1
-1;
#X obj 44 98 tabread4~ array1;
#X obj 44 122 *~ 0.3;
#X msg 152 115 0 50;
#X msg 214 114 1 50;
#X obj 44 35 inlet;
#X connect 0 0 6 0;
#X connect 2 0 3 1;
#X connect 3 0 1 0;
#X connect 3 0 1 1;
#X connect 4 0 9 0;
#X connect 5 0 8 0;
#X connect 5 0 4 0;
#X connect 6 0 7 0;
#X connect 7 0 3 0;
#X connect 8 0 2 0;
#X connect 9 0 2 0;
#X connect 10 0 0 0;
