#N canvas 405 182 684 517 10;
#X text 34 55 release;
#X floatatom 182 139 8 0 0 0 - - -;
#X obj 182 33 inlet;
#X obj 182 74 *;
#X obj 104 399 tabwrite vol;
#X obj 232 58 r array_size;
#X obj 255 248 /;
#X floatatom 255 278 10 0 0 0 - - -;
#X obj 104 328 *;
#X obj 104 189 boucle;
#X obj 104 155 r writeV;
#X floatatom 410 233 5 0 0 0 - - -;
#X obj 104 258 -;
#X obj 182 97 int;
#X obj 255 113 -;
#X obj 299 117 bng 15 250 50 0 empty empty empty 17 7 0 10 -262144
-1 -1;
#X text 451 233 difference en y;
#X floatatom 255 146 0 0 0 0 - - -;
#X text 262 171 difference en x;
#X obj 104 368 +;
#X obj 248 223 bng 15 250 50 0 empty empty empty 17 7 0 10 -262144
-1 -1;
#X obj 255 312 * -1;
#X obj 299 97 r xS;
#X obj 23 173 r xS;
#X obj 410 204 r yD;
#X obj 129 346 r yD;
#X connect 1 0 9 2;
#X connect 2 0 3 0;
#X connect 3 0 13 0;
#X connect 5 0 3 1;
#X connect 6 0 7 0;
#X connect 7 0 21 0;
#X connect 8 0 19 0;
#X connect 9 0 4 1;
#X connect 9 0 12 0;
#X connect 10 0 9 0;
#X connect 11 0 6 0;
#X connect 12 0 8 0;
#X connect 13 0 14 0;
#X connect 13 0 1 0;
#X connect 14 0 17 0;
#X connect 15 0 14 0;
#X connect 17 0 6 1;
#X connect 17 0 20 0;
#X connect 19 0 4 0;
#X connect 20 0 6 0;
#X connect 21 0 8 1;
#X connect 22 0 14 1;
#X connect 22 0 15 0;
#X connect 23 0 9 1;
#X connect 23 0 12 1;
#X connect 24 0 11 0;
#X connect 25 0 19 1;
