#N canvas 653 219 449 241 10;
#X floatatom 27 77 5 0 0 0 - - -, f 5;
#X obj 27 21 inlet;
#X obj 27 53 + 1;
#X msg 27 122 \; freq resize \$1 \; vol resize \$1 \;, f 18;
#X obj 27 99 * 44100;
#X obj 160 117 s array_size;
#X obj 67 20 loadbang;
#X msg 67 77 1;
#X connect 0 0 4 0;
#X connect 1 0 2 0;
#X connect 2 0 0 0;
#X connect 4 0 3 0;
#X connect 4 0 5 0;
#X connect 6 0 7 0;
#X connect 7 0 4 0;
