#N canvas 430 479 270 251 10;
#X floatatom 77 103 5 0 0 0 - - -;
#X obj 77 125 * 44100;
#X obj 77 154 array size;
#X msg 134 125 symbol array1;
#X obj 134 63 loadbang;
#X obj 51 181 s array_size;
#X obj 33 141 bng 15 250 50 0 empty empty empty 17 7 0 10 -262144 -1
-1;
#X obj 77 16 inlet;
#X obj 154 172 outlet;
#X msg 102 80 1;
#X obj 77 48 + 1;
#X connect 0 0 1 0;
#X connect 1 0 2 0;
#X connect 1 0 5 0;
#X connect 1 0 6 0;
#X connect 2 0 8 0;
#X connect 3 0 2 1;
#X connect 4 0 3 0;
#X connect 4 0 9 0;
#X connect 6 0 2 0;
#X connect 7 0 10 0;
#X connect 9 0 0 0;
#X connect 10 0 0 0;
