#N canvas 628 140 534 619 10;
#X obj 30 562 tabwrite array1;
#X msg 30 47 bang;
#X obj 30 70 until;
#X obj 68 196 + 1;
#X obj 113 187 sel 0;
#X obj 30 396 sin;
#X obj 68 253 mod 100000;
#X obj 93 369 tabread array1;
#X obj 30 535 +;
#X obj 30 341 / 210;
#X floatatom 315 422 5 0 0 0 - - -, f 5;
#X floatatom 291 324 5 0 0 0 - - -, f 5;
#X floatatom 62 149 8 0 0 0 - - -, f 8;
#X obj 30 13 inlet;
#X obj 62 123 inlet;
#X obj 237 209 inlet;
#X obj 360 232 inlet;
#X obj 395 404 inlet;
#X obj 243 460 100;
#X obj 243 483 -;
#X obj 243 439 bng 15 250 50 0 empty empty empty 17 7 0 10 -262144
-1 -1;
#X obj 30 501 / 100;
#X floatatom 243 514 5 0 0 0 - - -, f 5;
#X floatatom 237 236 10 0 0 0 - - -, f 10;
#X obj 345 283 15000;
#X obj 345 306 -;
#X obj 345 263 bng 15 250 50 0 empty empty empty 17 7 0 10 -262144
-1 -1;
#X obj 30 148 f;
#X obj 30 178 +;
#X connect 1 0 2 0;
#X connect 2 0 27 0;
#X connect 3 0 6 0;
#X connect 4 0 2 1;
#X connect 5 0 21 0;
#X connect 6 0 4 0;
#X connect 6 0 27 1;
#X connect 7 0 8 1;
#X connect 8 0 0 0;
#X connect 9 0 5 0;
#X connect 10 0 19 1;
#X connect 10 0 20 0;
#X connect 11 0 9 1;
#X connect 12 0 28 1;
#X connect 13 0 1 0;
#X connect 14 0 12 0;
#X connect 15 0 23 0;
#X connect 16 0 26 0;
#X connect 16 0 25 1;
#X connect 17 0 10 0;
#X connect 18 0 19 0;
#X connect 19 0 21 1;
#X connect 19 0 22 0;
#X connect 20 0 18 0;
#X connect 21 0 8 0;
#X connect 23 0 6 1;
#X connect 24 0 25 0;
#X connect 25 0 11 0;
#X connect 26 0 24 0;
#X connect 27 0 28 0;
#X connect 28 0 3 0;
#X connect 28 0 0 1;
#X connect 28 0 7 0;
#X connect 28 0 9 0;
