#N canvas 398 221 651 745 10;
#X obj 30 691 tabwrite array1;
#X msg 30 95 bang;
#X obj 30 118 until;
#X obj 68 244 + 1;
#X obj 113 235 sel 0;
#X obj 30 525 sin;
#X obj 68 301 mod 100000;
#X obj 93 498 tabread array1;
#X obj 30 664 +;
#X floatatom 365 555 5 0 0 0 - - -;
#X floatatom 266 417 8 0 0 0 - - -;
#X floatatom 62 211 8 0 0 0 - - -;
#X obj 30 12 inlet;
#X obj 110 114 inlet;
#X obj 281 322 inlet;
#X obj 445 539 inlet;
#X obj 293 591 100;
#X obj 293 614 -;
#X obj 293 570 bng 15 250 50 0 empty empty empty 17 7 0 10 -262144
-1 -1;
#X floatatom 293 645 5 0 0 0 - - -;
#X floatatom 237 286 10 0 0 0 - - -;
#X obj 30 196 f;
#X obj 30 226 +;
#X obj 155 139 r array_size;
#X obj 110 155 *;
#X obj 110 178 int;
#X obj 237 188 inlet;
#X obj 282 213 r array_size;
#X obj 237 229 *;
#X obj 237 252 int;
#X obj 125 269 r array_size;
#X obj 30 630 / 10;
#X obj 303 448 int;
#X obj 30 479 * 3.14159;
#X obj 303 471 * 2;
#X floatatom 303 518 8 0 0 0 - - -;
#X obj 266 370 44100;
#X obj 266 393 /;
#X obj 266 350 bng 15 250 50 0 empty empty empty 17 7 0 10 -262144
-1 -1;
#X obj 30 432 /;
#X obj 30 502 * 2;
#X msg 436 28 \; pd dsp 0;
#X obj 436 69 delay 100;
#X msg 436 92 \; pd dsp 1;
#X obj 390 28 bng 15 250 50 0 empty empty empty 17 7 0 10 -262144 -1
-1;
#X connect 1 0 2 0;
#X connect 2 0 21 0;
#X connect 3 0 6 0;
#X connect 4 0 2 1;
#X connect 5 0 31 0;
#X connect 6 0 4 0;
#X connect 6 0 21 1;
#X connect 7 0 8 1;
#X connect 8 0 0 0;
#X connect 9 0 17 1;
#X connect 9 0 18 0;
#X connect 10 0 39 1;
#X connect 11 0 22 1;
#X connect 12 0 1 0;
#X connect 12 0 41 0;
#X connect 12 0 44 0;
#X connect 13 0 24 0;
#X connect 14 0 37 1;
#X connect 14 0 38 0;
#X connect 15 0 9 0;
#X connect 16 0 17 0;
#X connect 17 0 19 0;
#X connect 17 0 31 1;
#X connect 18 0 16 0;
#X connect 20 0 6 1;
#X connect 21 0 22 0;
#X connect 22 0 3 0;
#X connect 22 0 0 1;
#X connect 22 0 7 0;
#X connect 22 0 39 0;
#X connect 23 0 24 1;
#X connect 24 0 25 0;
#X connect 25 0 11 0;
#X connect 26 0 28 0;
#X connect 27 0 28 1;
#X connect 28 0 29 0;
#X connect 29 0 20 0;
#X connect 30 0 6 1;
#X connect 31 0 8 0;
#X connect 32 0 34 0;
#X connect 33 0 40 0;
#X connect 36 0 37 0;
#X connect 37 0 10 0;
#X connect 38 0 36 0;
#X connect 39 0 33 0;
#X connect 40 0 5 0;
#X connect 41 0 42 0;
#X connect 42 0 43 0;
#X connect 44 0 42 0;
