#N canvas 421 84 651 566 10;
#X msg 30 95 bang;
#X obj 30 118 until;
#X obj 68 244 + 1;
#X obj 113 235 sel 0;
#X obj 30 525 sin;
#X obj 68 301 mod 100000;
#X obj 30 664 +;
#X floatatom 365 551 5 0 0 0 - - -, f 5;
#X floatatom 266 415 8 0 0 0 - - -, f 8;
#X floatatom 62 211 8 0 0 0 - - -, f 8;
#X obj 30 12 inlet;
#X obj 110 114 inlet;
#X obj 281 320 inlet;
#X obj 445 533 inlet;
#X obj 293 589 100;
#X obj 293 612 -;
#X obj 293 568 bng 15 250 50 0 empty empty empty 17 7 0 10 -262144
-1 -1;
#X floatatom 293 643 5 0 0 0 - - -, f 5;
#X floatatom 237 284 10 0 0 0 - - -, f 10;
#X obj 30 196 f;
#X obj 30 226 +;
#X obj 155 137 r array_size;
#X obj 110 155 *;
#X obj 110 178 int;
#X obj 237 186 inlet;
#X obj 282 209 r array_size;
#X obj 237 227 *;
#X obj 237 250 int;
#X obj 125 269 r array_size;
#X obj 30 630 / 10;
#X obj 30 479 * 3.14159;
#X obj 266 368 44100;
#X obj 266 391 /;
#X obj 266 348 bng 15 250 50 0 empty empty empty 17 7 0 10 -262144
-1 -1;
#X obj 30 432 /;
#X obj 30 502 * 2;
#X msg 436 30 \; pd dsp 0;
#X obj 436 71 delay 100;
#X msg 436 109 \; pd dsp 1;
#X obj 390 30 bng 15 250 50 0 empty empty empty 17 7 0 10 -262144 -1
-1;
#X obj 30 456 +;
#X obj 373 438 inlet;
#X obj 373 466 bng 15 250 50 0 empty empty empty 17 7 0 10 -262144
-1 -1;
#X obj 93 498 tabread freq;
#X obj 30 691 tabwrite freq;
#X connect 0 0 1 0;
#X connect 1 0 19 0;
#X connect 2 0 5 0;
#X connect 3 0 1 1;
#X connect 4 0 29 0;
#X connect 5 0 3 0;
#X connect 5 0 19 1;
#X connect 6 0 44 0;
#X connect 7 0 15 1;
#X connect 7 0 16 0;
#X connect 8 0 34 1;
#X connect 9 0 20 1;
#X connect 10 0 0 0;
#X connect 10 0 36 0;
#X connect 10 0 39 0;
#X connect 11 0 22 0;
#X connect 12 0 32 1;
#X connect 12 0 33 0;
#X connect 13 0 7 0;
#X connect 14 0 15 0;
#X connect 15 0 17 0;
#X connect 15 0 29 1;
#X connect 16 0 14 0;
#X connect 18 0 5 1;
#X connect 19 0 20 0;
#X connect 20 0 2 0;
#X connect 20 0 34 0;
#X connect 20 0 43 0;
#X connect 20 0 44 1;
#X connect 21 0 22 1;
#X connect 22 0 23 0;
#X connect 23 0 9 0;
#X connect 24 0 26 0;
#X connect 25 0 26 1;
#X connect 26 0 27 0;
#X connect 27 0 18 0;
#X connect 28 0 5 1;
#X connect 29 0 6 0;
#X connect 30 0 35 0;
#X connect 31 0 32 0;
#X connect 32 0 8 0;
#X connect 33 0 31 0;
#X connect 34 0 40 0;
#X connect 35 0 4 0;
#X connect 36 0 37 0;
#X connect 37 0 38 0;
#X connect 39 0 37 0;
#X connect 40 0 30 0;
#X connect 41 0 40 1;
#X connect 41 0 42 0;
#X connect 43 0 6 1;
