#N canvas 790 228 410 373 10;
#X floatatom 144 152 8 0 0 0 - - -;
#X obj 144 46 inlet;
#X obj 144 87 *;
#X obj 66 300 tabwrite vol;
#X obj 194 71 r array_size;
#X obj 66 202 boucle;
#X obj 66 168 r writeV;
#X obj 144 110 int;
#X obj 82 106 r xD;
#X text 34 55 sustain;
#X obj 66 248 bng 15 250 50 0 empty empty empty 17 7 0 10 -262144 -1
-1;
#X obj 66 272 f;
#X obj 144 185 s xS;
#X obj 115 238 r yD;
#X connect 0 0 5 2;
#X connect 0 0 12 0;
#X connect 1 0 2 0;
#X connect 2 0 7 0;
#X connect 4 0 2 1;
#X connect 5 0 3 1;
#X connect 5 0 10 0;
#X connect 6 0 5 0;
#X connect 7 0 0 0;
#X connect 8 0 5 1;
#X connect 10 0 11 0;
#X connect 11 0 3 0;
#X connect 13 0 11 1;
