#N canvas 469 396 594 161 10;
#X obj 123 55 inlet;
#X obj 168 55 inlet;
#X obj 61 69 inlet;
#X obj 61 92 s writeV;
#X obj 213 55 inlet;
#X obj 252 55 inlet;
#X obj 123 92 attack, f 8;
#X obj 213 92 decay, f 7;
#X obj 307 55 inlet;
#X obj 307 92 sustain;
#X obj 368 92 release;
#X obj 368 56 inlet;
#X connect 0 0 6 0;
#X connect 1 0 6 1;
#X connect 2 0 3 0;
#X connect 4 0 7 0;
#X connect 5 0 7 1;
#X connect 8 0 9 0;
#X connect 11 0 10 0;
