#N canvas 1 55 1278 704 10;
#X floatatom 138 280 8 0 0 0 - - -, f 8;
#X obj 138 187 inlet;
#X obj 138 228 *;
#X obj 138 251 int;
#X obj 70 459 tabwrite vol;
#X obj 215 210 r array_size;
#X floatatom 206 339 8 0 0 0 - - -, f 8;
#X obj 206 309 inlet;
#X obj 123 356 /;
#X floatatom 123 391 10 0 0 0 - - -, f 10;
#X obj 70 408 *;
#X obj 400 170 inlet;
#X obj 123 330 bng 15 250 50 0 empty empty empty 17 7 0 10 -262144
-1 -1;
#X obj 465 170 inlet;
#X obj 61 69 inlet;
#X obj 70 297 boucle;
#X text 70 189 attack;
#X obj 152 307 s xA;
#X obj 70 263 r writeV;
#X obj 61 92 s writeV;
#X connect 0 0 8 1;
#X connect 0 0 12 0;
#X connect 0 0 15 2;
#X connect 0 0 17 0;
#X connect 1 0 2 0;
#X connect 2 0 3 0;
#X connect 3 0 0 0;
#X connect 5 0 2 1;
#X connect 6 0 8 0;
#X connect 7 0 6 0;
#X connect 8 0 9 0;
#X connect 9 0 10 1;
#X connect 10 0 4 0;
#X connect 12 0 8 0;
#X connect 14 0 19 0;
#X connect 15 0 10 0;
#X connect 15 0 4 1;
#X connect 18 0 15 0;
